<?xml version="1.0" encoding="UTF-8" standalone="no"?>
<!-- Created with Inkscape (http://www.inkscape.org/) -->

<svg
   width="99.658195mm"
   height="211.66667mm"
   viewBox="0 0 99.658195 211.66667"
   version="1.1"
   id="svg1"
   xml:space="preserve"
   xmlns:inkscape="http://www.inkscape.org/namespaces/inkscape"
   xmlns:sodipodi="http://sodipodi.sourceforge.net/DTD/sodipodi-0.dtd"
   xmlns="http://www.w3.org/2000/svg"
   xmlns:svg="http://www.w3.org/2000/svg"><sodipodi:namedview
     id="namedview1"
     pagecolor="#ffffff"
     bordercolor="#000000"
     borderopacity="0.25"
     inkscape:showpageshadow="2"
     inkscape:pageopacity="0.0"
     inkscape:pagecheckerboard="0"
     inkscape:deskcolor="#d1d1d1"
     inkscape:document-units="mm" /><defs
     id="defs1" /><g
     inkscape:label="Layer 1"
     inkscape:groupmode="layer"
     id="layer1"
     transform="translate(165.09162,-434.2481)"><g
       id="g1-4-2"
       transform="matrix(0.41341146,0,0,0.41341146,-221.09565,434.24812)">
	<path
   class="st0"
   d="M 376.531,197.984 C 376.5,178.265 372.843,156.812 366.687,135.281 357.406,103.031 342.531,70.797 324.281,45.547 315.093,32.938 305.093,22.031 293.906,13.813 288.281,9.735 282.375,6.313 276.031,3.875 269.719,1.438 262.969,0 256,0 c -9.297,0 -18.172,2.563 -26.234,6.625 -14.141,7.188 -26.328,18.781 -37.391,32.75 -16.531,21.031 -30.438,47.875 -40.563,75.813 -10.063,27.984 -16.297,56.938 -16.344,82.797 C 135.469,263.938 135.5,512 135.5,512 h 241.031 c 0,0 -0.015,-252.125 0,-314.016 z M 167.688,479.781 c 0,-0.766 0,-1.469 0,-2.313 0,-11.125 0,-28.313 0,-53.469 h 176.625 c 0,27.063 0,44.75 0,55.781 H 167.688 Z M 344.313,391.797 H 167.688 c 0,-14.266 0,-36.734 0,-62.328 0,-43.625 0,-96.125 0,-131.484 -0.016,-15.641 3.063,-34.609 8.594,-53.813 8.234,-28.859 22.031,-58.422 37.516,-79.703 7.703,-10.656 15.828,-19.203 23.297,-24.625 3.734,-2.734 7.281,-4.688 10.438,-5.906 3.188,-1.219 5.953,-1.719 8.469,-1.719 3.344,0 7.188,0.906 11.75,3.188 7.938,3.938 17.469,12.313 26.563,23.906 13.719,17.375 26.516,41.656 35.563,66.813 9.125,25.141 14.469,51.313 14.438,71.859 -0.003,56.109 -0.003,155.171 -0.003,193.812 z"
   id="path1-4-3"
   style="fill:#000000" />
</g><path
       style="fill:#1a1a1a;fill-opacity:1;stroke:#808080;stroke-width:0.595056;stroke-linecap:square;stroke-dasharray:1.78751;stroke-opacity:1;paint-order:stroke markers fill"
       d="m -151.71287,555.53509 c 0.005,-48.61243 0.1435,-50.33669 5.2951,-66.02956 7.39515,-22.52721 21.6863,-41.61745 31.15525,-41.61745 7.09847,0 17.523822,11.21532 25.425942,27.35257 3.43204,7.00871 7.77054,19.49015 9.13233,26.27281 1.62931,8.11509 1.86925,15.06707 1.88279,54.54995 l 0.0136,39.75675 h -36.454672 -36.45469 z"
       id="path14-6" /><path
       style="fill:#1a1a1a;fill-opacity:1;stroke:#808080;stroke-width:0.595056;stroke-linecap:square;stroke-dasharray:1.78751;stroke-opacity:1;paint-order:stroke markers fill"
       d="m -151.71721,620.91578 v -11.35906 h 36.45469 36.454692 v 11.35906 11.35907 h -36.454692 -36.45469 z"
       id="path15-4" /><path
       style="fill:#1a1a1a;fill-opacity:1;stroke:#808080;stroke-width:0.595056;stroke-linecap:square;stroke-dasharray:1.78751;stroke-opacity:1;paint-order:stroke markers fill"
       d="m -151.7604,594.89557 c -0.12303,-2.63377 0.21264,-40.44873 0.54988,-61.94654 0.41848,-26.67595 0.59148,-28.48301 3.74303,-39.09634 6.10946,-20.57452 17.74719,-39.10867 27.86949,-44.38471 1.76983,-0.92249 2.87562,-1.12822 5.08099,-0.94534 13.21832,1.09617 32.423942,35.493 34.641892,62.04288 0.31233,3.73879 0.64068,23.44017 0.72967,43.78082 0.089,20.34068 0.26078,37.99357 0.38178,39.22864 l 0.22,2.24566 -36.586772,-2.4e-4 c -34.47578,-2.1e-4 -36.58926,-0.0536 -36.62996,-0.92483 z"
       id="path16-8" /><path
       style="fill:#1a1a1a;fill-opacity:1;stroke:#808080;stroke-width:0.595056;stroke-linecap:square;stroke-dasharray:1.78751;stroke-opacity:1;paint-order:stroke markers fill"
       d="m -151.75388,631.61805 c -0.17138,-3.1032 -0.0394,-21.63308 0.1555,-21.82794 0.32761,-0.32761 72.363392,-0.30835 72.691172,0.0193 0.13768,0.13766 0.25035,5.18925 0.25037,11.22572 l 4e-5,10.97542 -36.530212,0.1357 c -29.03461,0.10784 -36.53772,0 -36.56687,-0.52835 z"
       id="path17-5" /><path
       style="fill:#808080;fill-opacity:1;stroke:#808080;stroke-width:1.19011;stroke-linecap:square;stroke-dasharray:3.57502;stroke-opacity:1;paint-order:stroke markers fill"
       d="m -150.80049,550.7828 c 0.31114,-24.55408 0.85745,-45.96286 1.21402,-47.5751 4.76946,-21.56471 18.23752,-45.99842 28.75084,-52.15961 4.04548,-2.37083 4.97733,-2.53736 8.21632,-1.46839 11.64461,3.84307 26.654783,29.71062 31.286835,53.91769 0.611635,3.19638 1.400278,25.18807 1.752542,48.87039 l 0.640479,43.05882 h -36.213366 -36.21337 z"
       id="path18" /><path
       style="fill:#808080;fill-opacity:1;stroke:#808080;stroke-width:1.19011;stroke-linecap:square;stroke-dasharray:3.57502;stroke-opacity:1;paint-order:stroke markers fill"
       d="M -151.10205,620.78639 V 610.2198 h 35.92636 35.926364 v 10.56659 10.56656 h -35.926364 -35.92636 z"
       id="path19" /></g><style
     type="text/css"
     id="style1">
<![CDATA[
	.st0{fill:#000000;}
]]>
</style></svg>
