<?xml version="1.0" encoding="UTF-8" standalone="no"?>
<!-- Created with Inkscape (http://www.inkscape.org/) -->

<svg
   width="99.658188mm"
   height="211.66667mm"
   viewBox="0 0 99.658188 211.66667"
   version="1.1"
   id="svg1"
   xml:space="preserve"
   xmlns:inkscape="http://www.inkscape.org/namespaces/inkscape"
   xmlns:sodipodi="http://sodipodi.sourceforge.net/DTD/sodipodi-0.dtd"
   xmlns="http://www.w3.org/2000/svg"
   xmlns:svg="http://www.w3.org/2000/svg"><sodipodi:namedview
     id="namedview1"
     pagecolor="#ffffff"
     bordercolor="#000000"
     borderopacity="0.25"
     inkscape:showpageshadow="2"
     inkscape:pageopacity="0.0"
     inkscape:pagecheckerboard="0"
     inkscape:deskcolor="#d1d1d1"
     inkscape:document-units="mm" /><defs
     id="defs1" /><g
     inkscape:label="Layer 1"
     inkscape:groupmode="layer"
     id="layer1"
     transform="translate(354.17316,-439.39095)"><g
       id="g1-4-2-3"
       transform="matrix(0.41341146,0,0,0.41341146,-410.17722,439.39096)">
	<path
   class="st0"
   d="M 376.531,197.984 C 376.5,178.265 372.843,156.812 366.687,135.281 357.406,103.031 342.531,70.797 324.281,45.547 315.093,32.938 305.093,22.031 293.906,13.813 288.281,9.735 282.375,6.313 276.031,3.875 269.719,1.438 262.969,0 256,0 c -9.297,0 -18.172,2.563 -26.234,6.625 -14.141,7.188 -26.328,18.781 -37.391,32.75 -16.531,21.031 -30.438,47.875 -40.563,75.813 -10.063,27.984 -16.297,56.938 -16.344,82.797 C 135.469,263.938 135.5,512 135.5,512 h 241.031 c 0,0 -0.015,-252.125 0,-314.016 z M 167.688,479.781 c 0,-0.766 0,-1.469 0,-2.313 0,-11.125 0,-28.313 0,-53.469 h 176.625 c 0,27.063 0,44.75 0,55.781 H 167.688 Z M 344.313,391.797 H 167.688 c 0,-14.266 0,-36.734 0,-62.328 0,-43.625 0,-96.125 0,-131.484 -0.016,-15.641 3.063,-34.609 8.594,-53.813 8.234,-28.859 22.031,-58.422 37.516,-79.703 7.703,-10.656 15.828,-19.203 23.297,-24.625 3.734,-2.734 7.281,-4.688 10.438,-5.906 3.188,-1.219 5.953,-1.719 8.469,-1.719 3.344,0 7.188,0.906 11.75,3.188 7.938,3.938 17.469,12.313 26.563,23.906 13.719,17.375 26.516,41.656 35.563,66.813 9.125,25.141 14.469,51.313 14.438,71.859 -0.003,56.109 -0.003,155.171 -0.003,193.812 z"
   id="path1-4-3-5"
   style="fill:#000000" />
</g><path
       style="fill:#1a1a1a;fill-opacity:1;stroke:#808080;stroke-width:0.595056;stroke-linecap:square;stroke-dasharray:1.78751;stroke-opacity:1;paint-order:stroke markers fill"
       d="m -340.79444,560.67793 c 0.005,-48.61243 0.1435,-50.33669 5.2951,-66.02956 7.39515,-22.52721 21.6863,-41.61745 31.15525,-41.61745 7.09847,0 17.52382,11.21532 25.42594,27.35257 3.43204,7.00871 7.77054,19.49015 9.13233,26.27281 1.62931,8.11509 1.86925,15.06707 1.88279,54.54995 l 0.0136,39.75675 h -36.45467 -36.45469 z"
       id="path14-6-8" /><path
       style="fill:#1a1a1a;fill-opacity:1;stroke:#808080;stroke-width:0.595056;stroke-linecap:square;stroke-dasharray:1.78751;stroke-opacity:1;paint-order:stroke markers fill"
       d="m -340.79878,626.05862 v -11.35906 h 36.45469 36.45469 v 11.35906 11.35907 h -36.45469 -36.45469 z"
       id="path15-4-5" /><path
       style="fill:#1a1a1a;fill-opacity:1;stroke:#808080;stroke-width:0.595056;stroke-linecap:square;stroke-dasharray:1.78751;stroke-opacity:1;paint-order:stroke markers fill"
       d="m -340.84197,600.03841 c -0.12303,-2.63377 0.21264,-40.44873 0.54988,-61.94654 0.41848,-26.67595 0.59148,-28.48301 3.74303,-39.09634 6.10946,-20.57452 17.74719,-39.10867 27.86949,-44.38471 1.76983,-0.92249 2.87562,-1.12822 5.08099,-0.94534 13.21832,1.09617 32.42394,35.493 34.64189,62.04288 0.31233,3.73879 0.64068,23.44017 0.72967,43.78082 0.089,20.34068 0.26078,37.99357 0.38178,39.22864 l 0.22,2.24566 -36.58677,-2.4e-4 c -34.47578,-2.1e-4 -36.58926,-0.0536 -36.62996,-0.92483 z"
       id="path16-8-9" /><path
       style="fill:#1a1a1a;fill-opacity:1;stroke:#808080;stroke-width:0.595056;stroke-linecap:square;stroke-dasharray:1.78751;stroke-opacity:1;paint-order:stroke markers fill"
       d="m -340.83545,636.76089 c -0.17138,-3.1032 -0.0394,-21.63308 0.1555,-21.82794 0.32761,-0.32761 72.36339,-0.30835 72.69117,0.0193 0.13768,0.13766 0.25035,5.18925 0.25037,11.22572 l 4e-5,10.97542 -36.53021,0.1357 c -29.03461,0.10784 -36.53772,0 -36.56687,-0.52835 z"
       id="path17-5-5" /><path
       style="fill:#808080;fill-opacity:1;stroke:#808080;stroke-width:1.19011;stroke-linecap:square;stroke-dasharray:3.57502;stroke-opacity:1;paint-order:stroke markers fill"
       d="m -339.88206,555.92564 c 0.31114,-24.55407 0.85745,-45.96286 1.21402,-47.5751 4.76946,-21.5647 18.23752,-45.99842 28.75083,-52.15961 4.04548,-2.37083 4.97734,-2.53735 8.21633,-1.46839 11.64461,3.84308 26.65478,29.71062 31.28683,53.9177 0.61164,3.19637 1.40028,25.18806 1.75255,48.87039 l 0.64047,43.05882 h -36.21336 -36.21337 z"
       id="path18-1" /><path
       style="fill:#808080;fill-opacity:1;stroke:#808080;stroke-width:1.19011;stroke-linecap:square;stroke-dasharray:3.57502;stroke-opacity:1;paint-order:stroke markers fill"
       d="m -340.18362,625.92923 v -10.56658 h 35.92636 35.92636 v 10.56658 10.56656 h -35.92636 -35.92636 z"
       id="path19-8" /><path
       style="fill:#ffffff;fill-opacity:1;stroke:#808080;stroke-width:4.49806;stroke-linecap:square;stroke-dasharray:13.5119;stroke-opacity:1;paint-order:stroke markers fill"
       d="m -1283.5925,2141.6038 c 0.7006,-68.6411 2.4351,-148.6045 3.8544,-177.6963 1.4194,-29.0918 2.5499,-54.2519 2.5123,-55.9113 -0.038,-1.6594 1.3418,-4.8143 3.0652,-7.0108 3.0225,-3.8521 12.0292,-29.4168 13.8022,-39.1765 0.475,-2.6146 9.0809,-20.9282 19.1242,-40.6968 31.5688,-62.1383 67.12,-101.8385 91.1953,-101.8385 14.8579,0 43.903,23.2745 60.7852,48.7086 17.792,26.8047 49.0648,88.7322 53.0481,105.0475 0.5363,2.1966 3.9565,15.3826 7.6005,29.3023 7.4157,28.3269 9.0139,59.7815 12.1579,239.2718 l 2.186,124.8021 h -135.3026 -135.3025 z"
       id="path20"
       transform="scale(0.26458333)" /><path
       style="fill:#ffffff;fill-opacity:1;stroke:#808080;stroke-width:4.49806;stroke-linecap:square;stroke-dasharray:13.5119;stroke-opacity:1;paint-order:stroke markers fill"
       d="m -1281.967,2364.2508 v -37.9399 h 133.7878 133.7878 v 37.9399 37.9398 h -133.7878 -133.7878 z"
       id="path21"
       transform="scale(0.26458333)" /></g><style
     type="text/css"
     id="style1">
<![CDATA[
	.st0{fill:#000000;}
]]>
</style></svg>
